<?xml version="1.0" encoding="UTF-8"?>
<svg version="1.1" xmlns="http://www.w3.org/2000/svg" width="500" height="500">
<path d="M0 0 C2.40456277 -0.00217084 4.80865365 -0.0203388 7.21313477 -0.03930664 C21.22993395 -0.09087037 34.91040966 1.27465596 48.68383789 3.93530273 C49.98514648 4.18582397 49.98514648 4.18582397 51.31274414 4.44140625 C88.92659718 12.02057046 122.34266217 29.87407781 151.74633789 54.12280273 C152.30023193 54.57131592 152.85412598 55.0198291 153.42480469 55.48193359 C155.40376161 57.1519248 157.10138623 58.68672269 158.34292603 60.97975159 C158.37133789 63.18530273 158.37133789 63.18530273 156.32333374 65.83457947 C155.30844577 66.86401761 154.27939402 67.87959817 153.23999023 68.88427734 C152.68246063 69.44253708 152.12493103 70.00079681 151.55050659 70.57597351 C149.69769845 72.42528867 147.82777731 74.25624367 145.95727539 76.08764648 C144.66636248 77.36923127 143.37655113 78.65192651 142.08779907 79.9356842 C138.68438494 83.31997814 135.26624046 86.68900949 131.84484863 90.05511475 C128.37995516 93.46911615 124.92892166 96.89706107 121.47680664 100.32397461 C115.88901057 105.86780713 110.29288055 111.40305495 104.68530273 116.92687988 C101.56712407 119.99966353 98.4634984 123.08634438 95.37133789 126.18530273 C94.71133789 126.84530273 94.05133789 127.50530273 93.37133789 128.18530273 C89.10365674 128.03151242 86.22616901 124.79495175 83.12133789 122.18530273 C55.26846966 99.60279317 21.30435739 92.64727636 -13.87475586 95.45874023 C-17.18778375 95.87238094 -20.37255512 96.44756082 -23.62866211 97.18530273 C-24.29559082 97.33596191 -24.96251953 97.48662109 -25.6496582 97.6418457 C-50.2278284 103.37730304 -71.15341857 115.14605558 -89.62866211 132.18530273 C-90.76561523 133.2159082 -90.76561523 133.2159082 -91.92553711 134.26733398 C-115.29451602 156.46786395 -131.27539617 191.00081131 -132.62866211 223.18530273 C-132.66572266 224.05622559 -132.7027832 224.92714844 -132.7409668 225.82446289 C-134.019928 262.36349818 -123.63695643 297.21568436 -99.62866211 325.18530273 C-98.46657227 326.5581543 -98.46657227 326.5581543 -97.28100586 327.95874023 C-79.77663114 348.02548374 -57.08473716 361.73888535 -31.62866211 369.18530273 C-30.6410791 369.48597656 -30.6410791 369.48597656 -29.63354492 369.79272461 C3.81383031 379.61597877 43.0882453 373.00291788 73.33227539 356.71582031 C79.80404455 353.08905902 85.63903893 348.90551923 91.37133789 344.18530273 C92.55083008 343.25137695 92.55083008 343.25137695 93.75415039 342.29858398 C110.97218386 327.99021819 122.24972216 305.91745838 126.37133789 284.18530273 C123.49259622 283.22572218 121.7171385 283.06377351 118.72979736 283.07177734 C117.77657593 283.07184784 116.82335449 283.07191833 115.84124756 283.07199097 C114.79704651 283.07715729 113.75284546 283.08232361 112.67700195 283.08764648 C111.57590088 283.08910675 110.4747998 283.09056702 109.34033203 283.09207153 C106.94547326 283.09588149 104.55061733 283.10200219 102.15576935 283.11013794 C98.36464373 283.12287774 94.57355303 283.12941147 90.78240967 283.13427734 C82.04518887 283.14669564 73.30800095 283.1683353 64.57080078 283.19050598 C55.93633994 283.21231862 47.3018951 283.23018114 38.6674118 283.24124146 C34.9344409 283.24772033 31.201521 283.26023097 27.46856689 283.27294922 C25.17346237 283.27658291 22.87835737 283.2799345 20.58325195 283.28295898 C19.54714783 283.28812531 18.5110437 283.29329163 17.44354248 283.2986145 C16.47904175 283.298685 15.51454102 283.29875549 14.52081299 283.29882812 C13.69048679 283.30104874 12.8601606 283.30326935 12.004673 283.30555725 C8.77528747 283.15808335 5.57159818 282.64248278 2.37133789 282.18530273 C2.37133789 252.15530273 2.37133789 222.12530273 2.37133789 191.18530273 C74.97133789 191.18530273 147.57133789 191.18530273 222.37133789 191.18530273 C225.27618763 207.16197628 226.78849086 222.59810921 226.74633789 238.81030273 C226.74546173 239.64647125 226.74458557 240.48263977 226.74368286 241.34414673 C226.51870769 307.22294828 203.48859947 365.50577218 157.43774414 412.34936523 C155.37133789 414.18530273 155.37133789 414.18530273 153.37133789 414.18530273 C153.04133789 415.17530273 152.71133789 416.16530273 152.37133789 417.18530273 C150.53042497 418.80876154 148.7082252 420.28445352 146.74633789 421.74780273 C146.17020752 422.18326416 145.59407715 422.61872559 145.00048828 423.06738281 C107.86496543 450.81071094 62.08325042 468.28638781 15.30493164 468.35327148 C14.46777115 468.35659988 13.63061066 468.35992828 12.76808167 468.36335754 C11.00587507 468.3683866 9.24365908 468.37076712 7.48144531 468.37060547 C4.83975749 468.37277731 2.19849821 468.39093606 -0.44311523 468.40991211 C-26.08693009 468.49739929 -51.47903619 463.80073067 -75.62866211 455.18530273 C-76.37132324 454.92523438 -77.11398438 454.66516602 -77.87915039 454.3972168 C-94.07656497 448.66231421 -109.42759819 440.87516969 -123.62866211 431.18530273 C-124.47557617 430.61166992 -125.32249023 430.03803711 -126.19506836 429.44702148 C-131.04897209 426.10486792 -135.75704312 422.61086472 -140.37866211 418.95483398 C-141.96843632 417.70454281 -143.57432539 416.47461371 -145.19116211 415.25952148 C-146.01616211 414.6369043 -146.84116211 414.01428711 -147.69116211 413.37280273 C-148.44526367 412.80948242 -149.19936523 412.24616211 -149.97631836 411.66577148 C-150.5215918 411.1772168 -151.06686523 410.68866211 -151.62866211 410.18530273 C-151.62866211 409.52530273 -151.62866211 408.86530273 -151.62866211 408.18530273 C-152.22396729 407.91451904 -152.81927246 407.64373535 -153.43261719 407.36474609 C-155.6026977 406.1992476 -157.02850835 405.04337307 -158.76538086 403.31420898 C-159.33788574 402.74589355 -159.91039062 402.17757813 -160.50024414 401.59204102 C-161.09949707 400.98344238 -161.69875 400.37484375 -162.31616211 399.74780273 C-162.94119629 399.11600098 -163.56623047 398.48419922 -164.21020508 397.83325195 C-169.37951933 392.54915303 -174.12400736 387.04912055 -178.62866211 381.18530273 C-179.07918945 380.61118652 -179.5297168 380.03707031 -179.99389648 379.44555664 C-218.69642888 330.08561796 -235.77967884 267.90885746 -228.89819336 205.55639648 C-228.07327994 199.37420007 -226.94737708 193.27978809 -225.62866211 187.18530273 C-225.44142578 186.29552734 -225.25418945 185.40575195 -225.0612793 184.48901367 C-216.84566879 146.3623376 -199.10582338 110.6827133 -173.62866211 81.18530273 C-172.93643555 80.3822168 -172.24420898 79.57913086 -171.53100586 78.75170898 C-161.16208846 66.99023281 -150.19076081 56.55750938 -137.62866211 47.18530273 C-136.71600586 46.48920898 -135.80334961 45.79311523 -134.86303711 45.07592773 C-111.93921796 27.91738047 -87.00782273 16.23870621 -59.62866211 8.18530273 C-58.9715625 7.98807617 -58.31446289 7.79084961 -57.63745117 7.58764648 C-47.1282393 4.45840693 -36.48402931 2.59810619 -25.62866211 1.18530273 C-24.55781372 1.03847046 -24.55781372 1.03847046 -23.46533203 0.88867188 C-15.66936548 -0.04631031 -7.83982 -0.00078848 0 0 Z " fill="#2DA14A" transform="translate(251.628662109375,15.814697265625)"/>
<path d="M0 0 C2.40456277 -0.00217084 4.80865365 -0.0203388 7.21313477 -0.03930664 C21.22993395 -0.09087037 34.91040966 1.27465596 48.68383789 3.93530273 C49.98514648 4.18582397 49.98514648 4.18582397 51.31274414 4.44140625 C88.92659718 12.02057046 122.34266217 29.87407781 151.74633789 54.12280273 C152.30023193 54.57131592 152.85412598 55.0198291 153.42480469 55.48193359 C155.40376161 57.1519248 157.10138623 58.68672269 158.34292603 60.97975159 C158.37133789 63.18530273 158.37133789 63.18530273 156.32333374 65.83457947 C155.30844577 66.86401761 154.27939402 67.87959817 153.23999023 68.88427734 C152.68246063 69.44253708 152.12493103 70.00079681 151.55050659 70.57597351 C149.69769845 72.42528867 147.82777731 74.25624367 145.95727539 76.08764648 C144.66636248 77.36923127 143.37655113 78.65192651 142.08779907 79.9356842 C138.68438494 83.31997814 135.26624046 86.68900949 131.84484863 90.05511475 C128.37995516 93.46911615 124.92892166 96.89706107 121.47680664 100.32397461 C115.88901057 105.86780713 110.29288055 111.40305495 104.68530273 116.92687988 C101.56712407 119.99966353 98.4634984 123.08634438 95.37133789 126.18530273 C94.71133789 126.84530273 94.05133789 127.50530273 93.37133789 128.18530273 C89.10365674 128.03151242 86.22616901 124.79495175 83.12133789 122.18530273 C55.26846966 99.60279317 21.30435739 92.64727636 -13.87475586 95.45874023 C-17.18778375 95.87238094 -20.37255512 96.44756082 -23.62866211 97.18530273 C-24.29559082 97.33596191 -24.96251953 97.48662109 -25.6496582 97.6418457 C-50.2278284 103.37730304 -71.15341857 115.14605558 -89.62866211 132.18530273 C-90.76561523 133.2159082 -90.76561523 133.2159082 -91.92553711 134.26733398 C-115.29451602 156.46786395 -131.27539617 191.00081131 -132.62866211 223.18530273 C-132.66572266 224.05622559 -132.7027832 224.92714844 -132.7409668 225.82446289 C-133.25736777 240.57768069 -132.78138276 255.63151445 -128.52709961 269.87280273 C-127.60679344 273.26593157 -127.13578229 275.70164734 -127.62866211 279.18530273 C-129.49975586 281.52905273 -129.49975586 281.52905273 -132.06616211 283.68530273 C-132.97881836 284.45358398 -133.89147461 285.22186523 -134.83178711 286.01342773 C-137.97094069 288.45109448 -141.16463562 290.70436925 -144.51928711 292.83374023 C-146.6003003 294.16713017 -148.57961312 295.59091319 -150.56616211 297.06030273 C-153.62866211 299.18530273 -153.62866211 299.18530273 -155.62866211 299.18530273 C-155.95866211 300.17530273 -156.28866211 301.16530273 -156.62866211 302.18530273 C-158.74071658 304.01000286 -160.8386774 305.70278479 -163.06616211 307.37280273 C-163.66493164 307.8362207 -164.26370117 308.29963867 -164.88061523 308.77709961 C-169.36297958 312.18530273 -169.36297958 312.18530273 -171.62866211 312.18530273 C-171.62866211 312.84530273 -171.62866211 313.50530273 -171.62866211 314.18530273 C-173.30979905 315.51902434 -175.05061689 316.7780139 -176.81616211 317.99780273 C-181.42263354 321.22433541 -181.42263354 321.22433541 -185.50366211 325.06030273 C-187.62866211 327.18530273 -187.62866211 327.18530273 -190.31616211 328.24780273 C-193.25258657 329.43824508 -193.27739556 330.40328337 -194.62866211 333.18530273 C-196.5175201 335.11259679 -198.43293693 336.57211689 -200.62866211 338.18530273 C-201.61866211 338.18530273 -202.60866211 338.18530273 -203.62866211 338.18530273 C-203.95866211 339.17530273 -204.28866211 340.16530273 -204.62866211 341.18530273 C-227.999162 293.64094202 -236.91959021 239.36670453 -225.62866211 187.18530273 C-225.44142578 186.29552734 -225.25418945 185.40575195 -225.0612793 184.48901367 C-216.84566879 146.3623376 -199.10582338 110.6827133 -173.62866211 81.18530273 C-172.93643555 80.3822168 -172.24420898 79.57913086 -171.53100586 78.75170898 C-161.16208846 66.99023281 -150.19076081 56.55750938 -137.62866211 47.18530273 C-136.71600586 46.48920898 -135.80334961 45.79311523 -134.86303711 45.07592773 C-111.93921796 27.91738047 -87.00782273 16.23870621 -59.62866211 8.18530273 C-58.9715625 7.98807617 -58.31446289 7.79084961 -57.63745117 7.58764648 C-47.1282393 4.45840693 -36.48402931 2.59810619 -25.62866211 1.18530273 C-24.55781372 1.03847046 -24.55781372 1.03847046 -23.46533203 0.88867188 C-15.66936548 -0.04631031 -7.83982 -0.00078848 0 0 Z " fill="#E63B2F" transform="translate(251.628662109375,15.814697265625)"/>
<path d="M0 0 C72.6 0 145.2 0 220 0 C222.90484974 15.97667355 224.41715297 31.41280647 224.375 47.625 C224.37412384 48.46116852 224.37324768 49.29733704 224.37234497 50.15884399 C224.16567804 110.67649847 204.83801251 168.6379392 163 213 C161.89591797 214.18335938 161.89591797 214.18335938 160.76953125 215.390625 C156.73263654 219.5966428 156.73263654 219.5966428 155 221 C152 221 152 221 150.28125 219.35546875 C149.6934375 218.64003906 149.105625 217.92460937 148.5 217.1875 C144.49103087 212.29338344 144.49103087 212.29338344 139.5 208.5 C137 207 137 207 135.625 205.5625 C133.58820573 203.60404397 131.24331562 202.46632072 128.78515625 201.109375 C126.09624446 199.43836636 124.06573692 197.37872737 122 195 C122 194.34 122 193.68 122 193 C121.43410156 192.73058594 120.86820312 192.46117187 120.28515625 192.18359375 C117.88985503 190.94295056 115.68336245 189.55594153 113.4375 188.0625 C112.29087891 187.30646484 112.29087891 187.30646484 111.12109375 186.53515625 C109.18761383 185.13578681 107.54769402 183.81470833 106 182 C106 181.34 106 180.68 106 180 C105.175 179.79375 104.35 179.5875 103.5 179.375 C95.24793036 176.1331155 88.21229644 169.21229644 82 163 C81.65625 160.5546875 81.65625 160.5546875 82 158 C83.46875 156.4453125 83.46875 156.4453125 85.5 155.125 C86.23476563 154.61324219 86.96953125 154.10148438 87.7265625 153.57421875 C88.47679687 153.05472656 89.22703125 152.53523437 90 152 C108.18583385 138.27005771 119.83121161 114.98088425 124 93 C121.12125833 92.04041944 119.34580061 91.87847077 116.35845947 91.88647461 C115.40523804 91.8865451 114.4520166 91.8866156 113.46990967 91.88668823 C111.90360809 91.89443771 111.90360809 91.89443771 110.30566406 91.90234375 C109.20456299 91.90380402 108.10346191 91.90526428 106.96899414 91.9067688 C104.57413537 91.91057875 102.17927944 91.91669946 99.78443146 91.92483521 C95.99330584 91.937575 92.20221514 91.94410873 88.41107178 91.94897461 C79.67385098 91.96139291 70.93666306 91.98303256 62.19946289 92.00520325 C53.56500205 92.02701589 44.93055721 92.0448784 36.29607391 92.05593872 C32.56310301 92.0624176 28.83018311 92.07492823 25.097229 92.08764648 C22.80212447 92.09128018 20.50701948 92.09463176 18.21191406 92.09765625 C16.65775787 92.10540573 16.65775787 92.10540573 15.07220459 92.11331177 C14.10770386 92.11338226 13.14320313 92.11345276 12.1494751 92.11352539 C11.3191489 92.115746 10.48882271 92.11796661 9.63333511 92.12025452 C6.40394957 91.97278062 3.20026029 91.45718004 0 91 C0 60.97 0 30.94 0 0 Z " fill="#3B7DF0" transform="translate(254,207)"/>
<path d="M0 0 C4.74175148 2.57189762 8.76602263 5.27699779 12.875 8.8125 C18.96004795 13.9838488 25.18310352 18.90435883 31.5859375 23.67578125 C32.93238324 24.67956467 34.27873415 25.68347532 35.625 26.6875 C36.30997559 27.19804932 36.99495117 27.70859863 37.70068359 28.23461914 C43.14694048 32.3139201 48.45973263 36.54091523 53.74291992 40.82836914 C58.12187318 44.36061878 62.62776559 47.61522238 67.33984375 50.6953125 C67.88769531 51.12585938 68.43554688 51.55640625 69 52 C69 52.66 69 53.32 69 54 C70.65 54.66 72.3 55.32 74 56 C74 56.66 74 57.32 74 58 C75.65 58.66 77.3 59.32 79 60 C78.71221756 61.52157311 78.41953999 63.04222053 78.125 64.5625 C77.96257812 65.40941406 77.80015625 66.25632812 77.6328125 67.12890625 C77.1698839 69.22923044 76.61164971 71.30916523 76 73.37109375 C70.27194209 94.1576789 70.94285258 120.07110935 77.1015625 140.6875 C78.02186867 144.08062884 78.49287982 146.51634461 78 150 C76.12890625 152.34375 76.12890625 152.34375 73.5625 154.5 C72.64984375 155.26828125 71.7371875 156.0365625 70.796875 156.828125 C67.65772142 159.26579175 64.46402649 161.51906652 61.109375 163.6484375 C59.02836181 164.98182743 57.04904899 166.40561046 55.0625 167.875 C52 170 52 170 50 170 C49.67 170.99 49.34 171.98 49 173 C46.88794553 174.82470012 44.78998471 176.51748205 42.5625 178.1875 C41.96373047 178.65091797 41.36496094 179.11433594 40.74804688 179.59179688 C36.26568253 183 36.26568253 183 34 183 C34 183.66 34 184.32 34 185 C32.31886306 186.3337216 30.57804522 187.59271116 28.8125 188.8125 C24.20602857 192.03903267 24.20602857 192.03903267 20.125 195.875 C18 198 18 198 15.3125 199.0625 C12.37607554 200.25294235 12.35126655 201.21798064 11 204 C9.11114201 205.92729405 7.19572518 207.38681416 5 209 C4.01 209 3.02 209 2 209 C1.67 209.99 1.34 210.98 1 212 C-22.37049989 164.45563929 -31.2909281 110.18140179 -20 58 C-19.81276367 57.11022461 -19.62552734 56.22044922 -19.43261719 55.30371094 C-15.27508684 36.00961069 -8.30324505 17.85736857 0 0 Z " fill="#F7B504" transform="translate(46,145)"/>
<path d="M0 0 C72.6 0 145.2 0 220 0 C221.82902557 10.05964062 223.16482443 18.8724545 223 29 C220.35279622 26.35279622 220.64939777 24.81292293 220.4375 21.125 C220.22097319 17.52800354 219.87975685 14.51902742 219 11 C219 8.03 219 5.06 219 2 C147.06 2 75.12 2 1 2 C-1.34296343 45.93199556 -1.34296343 45.93199556 3 89 C3.62175802 89.00423194 4.24351604 89.00846388 4.88411522 89.01282406 C19.99802056 89.11603314 35.1118764 89.22465616 50.22569847 89.33933926 C57.53456385 89.39466745 64.84343411 89.44814878 72.15234375 89.49731445 C78.52120475 89.54016125 84.89002986 89.58644048 91.25883543 89.63687855 C94.6324899 89.66347551 98.00613727 89.68832847 101.37983322 89.70907402 C105.14178198 89.73306878 108.90363543 89.76313006 112.66552734 89.79467773 C113.78977615 89.8004332 114.91402496 89.80618866 116.07234192 89.81211853 C117.60363487 89.82680176 117.60363487 89.82680176 119.16586304 89.84178162 C120.05631506 89.84823417 120.94676708 89.85468672 121.8642025 89.8613348 C124 90 124 90 126 91 C126 91.66 126 92.32 126 93 C127.32 93.66 128.64 94.32 130 95 C129.01 95.495 129.01 95.495 128 96 C127.505 97.485 127.505 97.485 127 99 C126.34 99.99 125.68 100.98 125 102 C124.34 102 123.68 102 123 102 C123.33 99.03 123.66 96.06 124 93 C121.12125833 92.04041944 119.34580061 91.87847077 116.35845947 91.88647461 C115.40523804 91.8865451 114.4520166 91.8866156 113.46990967 91.88668823 C111.90360809 91.89443771 111.90360809 91.89443771 110.30566406 91.90234375 C109.20456299 91.90380402 108.10346191 91.90526428 106.96899414 91.9067688 C104.57413537 91.91057875 102.17927944 91.91669946 99.78443146 91.92483521 C95.99330584 91.937575 92.20221514 91.94410873 88.41107178 91.94897461 C79.67385098 91.96139291 70.93666306 91.98303256 62.19946289 92.00520325 C53.56500205 92.02701589 44.93055721 92.0448784 36.29607391 92.05593872 C32.56310301 92.0624176 28.83018311 92.07492823 25.097229 92.08764648 C22.80212447 92.09128018 20.50701948 92.09463176 18.21191406 92.09765625 C16.65775787 92.10540573 16.65775787 92.10540573 15.07220459 92.11331177 C14.10770386 92.11338226 13.14320313 92.11345276 12.1494751 92.11352539 C11.3191489 92.115746 10.48882271 92.11796661 9.63333511 92.12025452 C6.40394957 91.97278062 3.20026029 91.45718004 0 91 C0 60.97 0 30.94 0 0 Z " fill="#4C79C1" transform="translate(254,207)"/>
<path d="M0 0 C72.27 0 144.54 0 219 0 C220.94526216 9.72631081 222.1599459 18.17221324 222 28 C219.35279622 25.35279622 219.64939777 23.81292293 219.4375 20.125 C219.22097319 16.52800354 218.87975685 13.51902742 218 10 C218 7.03 218 4.06 218 1 C146.06 1 74.12 1 0 1 C0 0.67 0 0.34 0 0 Z " fill="#4078D5" transform="translate(255,208)"/>
<path d="M0 0 C1.27899165 3.83697495 0.43973592 5.31076903 -0.8125 9.125 C-7.40325479 31.45146693 -7.5716944 58.34865421 -0.8984375 80.6875 C0.02186867 84.08062884 0.49287982 86.51634461 0 90 C-1.87109375 92.34375 -1.87109375 92.34375 -4.4375 94.5 C-5.80648437 95.65242188 -5.80648437 95.65242188 -7.203125 96.828125 C-10.34025858 99.26422314 -13.53382109 101.51509422 -16.8828125 103.6484375 C-20.01087569 105.64531917 -22.99372529 107.82524808 -26 110 C-26.33 109.34 -26.66 108.68 -27 108 C-23.3085898 105.18928157 -19.63496786 102.41517129 -15.75 99.875 C-13.1363209 98.09294607 -11.15865301 96.29792095 -9 94 C-7.37253306 92.29503463 -5.71108689 90.62102968 -4 89 C-3.34 89 -2.68 89 -2 89 C-2.33 86.36 -2.66 83.72 -3 81 C-3.66 81 -4.32 81 -5 81 C-5.06058594 80.14535156 -5.12117188 79.29070312 -5.18359375 78.41015625 C-5.26738281 77.30542969 -5.35117188 76.20070313 -5.4375 75.0625 C-5.51871094 73.96035156 -5.59992188 72.85820312 -5.68359375 71.72265625 C-5.70418084 69.08890097 -5.70418084 69.08890097 -7 68 C-7.09795311 66.62390118 -7.12798088 65.24286118 -7.12939453 63.86328125 C-7.13254669 62.98567139 -7.13569885 62.10806152 -7.13894653 61.20385742 C-7.1369223 60.24970947 -7.13489807 59.29556152 -7.1328125 58.3125 C-7.13376923 57.33966064 -7.13472595 56.36682129 -7.13571167 55.36450195 C-7.13639358 53.303222 -7.13453853 51.24193992 -7.13037109 49.18066406 C-7.125023 46.01362312 -7.13031572 42.846724 -7.13671875 39.6796875 C-7.13605797 37.68229135 -7.13477681 35.68489529 -7.1328125 33.6875 C-7.13483673 32.73335205 -7.13686096 31.7792041 -7.13894653 30.79614258 C-7.13579437 29.91853271 -7.13264221 29.04092285 -7.12939453 28.13671875 C-7.12859894 27.36030029 -7.12780334 26.58388184 -7.12698364 25.78393555 C-7 24 -7 24 -6 23 C-5.79224439 21.33795513 -5.63281745 19.66970509 -5.5 18 C-5.11111111 13.11111111 -5.11111111 13.11111111 -4 12 C-3.75738335 9.74456376 -3.61667867 7.49054477 -3.4765625 5.2265625 C-2.91636963 2.60926796 -2.03004872 1.6826607 0 0 Z " fill="#E3B229" transform="translate(124,205)"/>
<path d="M0 0 C4.96768758 1.55240237 9.17867057 4.51054781 13 8 C13 8.66 13 9.32 13 10 C13.99 10 14.98 10 16 10 C17.71108689 11.62102968 19.37253306 13.29503463 21 15 C23.26286616 17.44418897 23.26286616 17.44418897 26 19 C29.56007221 18.75333604 29.56007221 18.75333604 33 18 C35.4375 18.4375 35.4375 18.4375 37 19 C37.495 17.515 37.495 17.515 38 16 C38.99 16 39.98 16 41 16 C41.66 13.69 42.32 11.38 43 9 C43.66 9 44.32 9 45 9 C45 6.69 45 4.38 45 2 C46.65 1.67 48.3 1.34 50 1 C49.74307373 1.56396484 49.48614746 2.12792969 49.22143555 2.70898438 C48.04073896 5.30476296 46.86409885 7.9023616 45.6875 10.5 C45.28337891 11.386875 44.87925781 12.27375 44.46289062 13.1875 C42.1061844 18.39907799 39.94214012 23.61983189 38 29 C34.12260577 28.2080216 32.02658036 26.54869925 29 24 C28.34 23.67 27.68 23.34 27 23 C27 22.34 27 21.68 27 21 C26.28070313 20.75378906 25.56140625 20.50757813 24.8203125 20.25390625 C21.67438821 18.85523354 19.50076542 17.15960297 16.875 14.9375 C15.92753906 14.14214844 14.98007813 13.34679687 14.00390625 12.52734375 C13.01261719 11.69332031 12.02132812 10.85929688 11 10 C9.94875338 9.14450051 8.89536606 8.29162474 7.83984375 7.44140625 C6.84082031 6.63574219 5.84179688 5.83007812 4.8125 5 C3.89082031 4.2575 2.96914062 3.515 2.01953125 2.75 C1.35308594 2.1725 0.68664062 1.595 0 1 C0 0.67 0 0.34 0 0 Z " fill="#E04424" transform="translate(88,176)"/>
<path d="M0 0 C0.66 0 1.32 0 2 0 C2.06859047 2.94939027 2.08702347 5.61322903 1.4375 8.5 C0.82568686 11.08898247 0.82568686 11.08898247 1.625 14 C2 17 2 17 0.5625 19.375 C-1.24598192 22.41324963 -1.06082687 24.35362662 -0.91015625 27.8125 C-1.04437624 31.08046503 -2.11266861 33.87750604 -3.24609375 36.921875 C-4.92676372 41.55460259 -5.20303171 45.92299391 -5.31640625 50.828125 C-5.33718735 51.57713074 -5.35796844 52.32613647 -5.37937927 53.09783936 C-5.44457088 55.48180288 -5.50361783 57.86587312 -5.5625 60.25 C-5.60571416 61.86980254 -5.64932937 63.48959443 -5.69335938 65.109375 C-5.80022096 69.07280832 -5.90157333 73.0363486 -6 77 C-6.33 77 -6.66 77 -7 77 C-7.5315657 50.4748718 -6.72099689 25.83887678 0 0 Z " fill="#EEB224" transform="translate(29,191)"/>
<path d="M0 0 C6.03870953 3.01935476 10.91352109 7.14541734 16.0390625 11.49609375 C21.16349013 15.82954772 26.48820728 19.87634717 31.8671875 23.88671875 C32.56682617 24.4089502 33.26646484 24.93118164 33.98730469 25.46923828 C35.37402556 26.50278561 36.76259168 27.53386352 38.15332031 28.56201172 C42.5999948 31.87124135 46.82616748 35.35196197 51 39 C45.57930875 39 41.26969955 35.23795706 37.5 31.5625 C36.675 30.716875 35.85 29.87125 35 29 C31.74395069 26.38823279 28.37002347 23.94092178 24.9296875 21.578125 C23.25709884 20.42695062 21.62436553 19.21827415 20 18 C20 17.34 20 16.68 20 16 C19.01 16 18.02 16 17 16 C17 15.34 17 14.68 17 14 C16.01 14 15.02 14 14 14 C12.28891311 12.37897032 10.62746694 10.70496537 9 9 C6.62157423 6.59593616 6.62157423 6.59593616 4 5 C1.24875747 5.13149826 1.24875747 5.13149826 -1 6 C-0.938125 6.7425 -0.87625 7.485 -0.8125 8.25 C-1.03239994 11.47519908 -1.78252188 12.69723426 -4 15 C-4.66 15 -5.32 15 -6 15 C-4.36041242 9.76727367 -2.61047965 4.84803364 0 0 Z " fill="#FCA31D" transform="translate(46,145)"/>
<path d="M0 0 C5.62259324 1.01503204 11.10227745 2.59969178 16.61132812 4.09570312 C19.06890963 4.75303215 21.53329135 5.37790907 24 6 C24.70447266 6.19851563 25.40894531 6.39703125 26.13476562 6.6015625 C35.26090438 8.86503755 44.7937187 8.2141738 54.125 8.125 C55.95832845 8.1149517 57.79166223 8.10582912 59.625 8.09765625 C64.08346634 8.07578564 68.54167358 8.04135739 73 8 C73 8.66 73 9.32 73 10 C62.81482808 10.92205595 52.78342802 11.03153898 42.5625 10.625 C40.92982178 10.56034546 40.92982178 10.56034546 39.26416016 10.49438477 C20.49924366 9.65628153 20.49924366 9.65628153 14.8125 7.0625 C10.90138105 5.36522196 7.11814734 4.0925697 3 3 C2.01 2.67 1.02 2.34 0 2 C0 1.34 0 0.68 0 0 Z " fill="#3F9357" transform="translate(205,381)"/>
<path d="M0 0 C0.66 1.32 1.32 2.64 2 4 C2.66 4 3.32 4 4 4 C4 4.66 4 5.32 4 6 C4.71542969 6.04898437 5.43085938 6.09796875 6.16796875 6.1484375 C7.16441406 6.22320312 8.16085938 6.29796875 9.1875 6.375 C10.15042969 6.44460938 11.11335938 6.51421875 12.10546875 6.5859375 C14.29340926 6.81855705 16.48037467 7.0840711 18.64770508 7.46337891 C28.53936308 9.1918044 38.30082627 9.43904263 48.3125 9.625 C50.03582473 9.66328529 51.75913249 9.70234266 53.48242188 9.7421875 C57.65480613 9.83700801 61.82727914 9.92144415 66 10 C66 10.33 66 10.66 66 11 C60.59636727 11.05017659 55.19287596 11.08607889 49.7890625 11.10986328 C47.95830924 11.11979909 46.12757132 11.13335237 44.296875 11.15087891 C29.55526449 11.2882733 15.48753515 10.28438206 1 7.375 C0.3090625 7.2409375 -0.381875 7.106875 -1.09375 6.96875 C-2.73009515 6.65057178 -4.36521269 6.32608789 -6 6 C-4.48052501 2.63251488 -3.47899158 1.39159663 0 0 Z " fill="#429756" transform="translate(210,473)"/>
<path d="M0 0 C0.33 0 0.66 0 1 0 C1.01030746 1.03094788 1.02061493 2.06189575 1.03123474 3.12408447 C1.1289531 12.83555267 1.23168577 22.54695656 1.33933926 32.25831985 C1.39452462 37.25112971 1.44793766 42.24394546 1.49731445 47.23681641 C1.54502263 52.05439085 1.59736785 56.87189455 1.65294075 61.68938446 C1.67333504 63.5281778 1.69205293 65.36699052 1.70907402 67.20581818 C1.73318277 69.779536 1.76322851 72.35312069 1.79467773 74.92675781 C1.8004332 75.68848801 1.80618866 76.4502182 1.81211853 77.23503113 C1.81254243 82.21630675 1.81254243 82.21630675 3 87 C4.9837767 88.28436734 4.9837767 88.28436734 7 89 C4.69 89 2.38 89 0 89 C0 59.63 0 30.26 0 0 Z " fill="#4674C2" transform="translate(254,209)"/>
<path d="M0 0 C0 3 0 3 -2.1171875 5.26171875 C-3.02726562 6.06222656 -3.93734375 6.86273438 -4.875 7.6875 C-5.77992188 8.49574219 -6.68484375 9.30398438 -7.6171875 10.13671875 C-10 12 -10 12 -12 12 C-12 12.99 -12 13.98 -12 15 C-12.66 15 -13.32 15 -14 15 C-12.95125002 17.62187494 -12.35068687 18.79371361 -9.875 20.25 C-9.25625 20.4975 -8.6375 20.745 -8 21 C-8 21.66 -8 22.32 -8 23 C-5.78877592 24.14656064 -3.670069 25.11509221 -1.3125 25.9375 C-0.1678125 26.4634375 -0.1678125 26.4634375 1 27 C1.33 27.99 1.66 28.98 2 30 C3.29355827 31.37195574 4.62298702 32.71182656 6 34 C-2.4676415 32.38890007 -10.08305138 23.91694862 -16 18 C-16.34375 15.5546875 -16.34375 15.5546875 -16 13 C-14.53125 11.4453125 -14.53125 11.4453125 -12.5 10.125 C-8.0273702 7.05805385 -4.02942642 3.62219716 0 0 Z " fill="#3B77C8" transform="translate(352,352)"/>
<path d="M0 0 C1.27899165 3.83697495 0.43973592 5.31076903 -0.8125 9.125 C-6.27757473 27.30037116 -5.23128848 46.22827139 -5 65 C-7.6402154 62.3597846 -7.23802723 60.4450706 -7.25224304 56.85289001 C-7.24505753 56.01327225 -7.23787201 55.17365448 -7.23046875 54.30859375 C-7.23001053 53.44814957 -7.22955231 52.58770538 -7.2290802 51.70118713 C-7.22605705 49.88126243 -7.21816888 48.06134033 -7.20581055 46.24145508 C-7.18755148 43.44538276 -7.18530085 40.64964134 -7.18554688 37.85351562 C-7.1806319 36.08853878 -7.17480367 34.3235642 -7.16796875 32.55859375 C-7.16685593 31.71695175 -7.1657431 30.87530975 -7.16459656 30.00816345 C-7.11604705 24.11604705 -7.11604705 24.11604705 -6 23 C-5.79224439 21.33795513 -5.63281745 19.66970509 -5.5 18 C-5.11111111 13.11111111 -5.11111111 13.11111111 -4 12 C-3.75738335 9.74456376 -3.61667867 7.49054477 -3.4765625 5.2265625 C-2.91636963 2.60926796 -2.03004872 1.6826607 0 0 Z " fill="#E4AF3A" transform="translate(124,205)"/>
<path d="M0 0 C2.475 0.99 2.475 0.99 5 2 C5 2.66 5 3.32 5 4 C5.556875 4.061875 6.11375 4.12375 6.6875 4.1875 C9.94344904 5.33148209 11.607132 7.54876936 14 10 C16.54343767 11.65323449 19.13625717 13.07267049 21.8125 14.5 C22.534375 14.995 23.25625 15.49 24 16 C24 16.99 24 17.98 24 19 C29.04239768 18.82612422 31.8878628 18.61012754 35.5 14.9375 C36.325 13.968125 37.15 12.99875 38 12 C38.66 12.33 39.32 12.66 40 13 C38.23807715 14.84269011 36.46648194 16.67390757 34.6875 18.5 C34.18798828 19.02464844 33.68847656 19.54929687 33.17382812 20.08984375 C31.83910496 21.4510846 30.4230616 22.73139516 29 24 C26 24 26 24 24.28125 22.35546875 C23.6934375 21.64003906 23.105625 20.92460937 22.5 20.1875 C18.49103087 15.29338344 18.49103087 15.29338344 13.5 11.5 C11 10 11 10 9.625 8.5625 C7.94966111 6.95159722 6.41625811 6.09116033 4.375 5 C1 3 1 3 0 0 Z " fill="#368AB4" transform="translate(380,404)"/>
<path d="M0 0 C0.66 0 1.32 0 2 0 C2.08564209 0.72590332 2.17128418 1.45180664 2.25952148 2.19970703 C2.65071152 5.50831367 3.04408534 8.81665718 3.4375 12.125 C3.57220703 13.26710938 3.70691406 14.40921875 3.84570312 15.5859375 C3.97783203 16.69453125 4.10996094 17.803125 4.24609375 18.9453125 C4.36654053 19.96125488 4.4869873 20.97719727 4.61108398 22.02392578 C5.00396608 25.03034934 5.48390313 28.01248074 6 31 C6.99 31.33 7.98 31.66 9 32 C8.34 32 7.68 32 7 32 C7.165 32.66 7.33 33.32 7.5 34 C8.12183299 37.73099794 8.06408926 41.21873378 8 45 C7.67 45 7.34 45 7 45 C-0.468337 13.58177313 -0.468337 13.58177313 0 0 Z " fill="#E5B530" transform="translate(23,269)"/>
<path d="M0 0 C6.00073223 4.31660302 11.54006063 9.02033308 17 14 C16.41889329 17.42754467 15.31446376 19.04538661 12.83984375 21.453125 C12.21142578 22.071875 11.58300781 22.690625 10.93554688 23.328125 C10.27619141 23.96234375 9.61683594 24.5965625 8.9375 25.25 C8.27427734 25.8996875 7.61105469 26.549375 6.92773438 27.21875 C5.29170683 28.8194676 3.64909088 30.41276193 2 32 C2 29.37886292 2.31292445 27.49064888 3 25 C4.32 25 5.64 25 7 25 C7 23.68 7 22.36 7 21 C8.423125 20.319375 8.423125 20.319375 9.875 19.625 C13.00313679 18.19761746 13.00313679 18.19761746 15 16 C14.51789063 15.60167969 14.03578125 15.20335938 13.5390625 14.79296875 C12.90742188 14.26316406 12.27578125 13.73335937 11.625 13.1875 C10.99851562 12.66542969 10.37203125 12.14335938 9.7265625 11.60546875 C8 10 8 10 6 7 C5.154375 6.71125 4.30875 6.4225 3.4375 6.125 C2.633125 5.75375 1.82875 5.3825 1 5 C0.1875 2.375 0.1875 2.375 0 0 Z " fill="#BC423C" transform="translate(393,62)"/>
<path d="M0 0 C0.33 0 0.66 0 1 0 C1.27096054 7.68904295 0.46940371 14.97771912 -0.75 22.5625 C-0.92756836 23.69478027 -1.10513672 24.82706055 -1.28808594 25.99365234 C-2.76098273 35.11189306 -4.66107937 44.06731375 -7 53 C-7.33 53 -7.66 53 -8 53 C-7.85851011 51.3954444 -7.71164314 49.79136233 -7.5625 48.1875 C-7.48128906 47.29417969 -7.40007812 46.40085937 -7.31640625 45.48046875 C-7 43 -7 43 -6 40 C-5.77820215 38.10787263 -5.59385985 36.21115528 -5.4375 34.3125 C-5.31181641 32.82169922 -5.31181641 32.82169922 -5.18359375 31.30078125 C-5.12300781 30.54152344 -5.06242187 29.78226562 -5 29 C-4.34 29 -3.68 29 -3 29 C-3.01160156 28.14535156 -3.02320313 27.29070312 -3.03515625 26.41015625 C-3.04417969 25.30542969 -3.05320312 24.20070313 -3.0625 23.0625 C-3.07410156 21.96035156 -3.08570313 20.85820312 -3.09765625 19.72265625 C-3 17 -3 17 -2 16 C-1.60006314 13.31137336 -1.24865457 10.63647783 -0.9375 7.9375 C-0.84662109 7.17888672 -0.75574219 6.42027344 -0.66210938 5.63867188 C-0.4375626 3.7595699 -0.21829022 1.87983905 0 0 Z " fill="#3F6DC2" transform="translate(476,275)"/>
<path d="M0 0 C1.63104325 0.3701445 3.25488024 0.77214352 4.875 1.1875 C5.77992187 1.40792969 6.68484375 1.62835938 7.6171875 1.85546875 C10.75958728 3.36485094 10.82713182 4.80960549 12 8 C13.96342122 9.76222079 13.96342122 9.76222079 16.3125 11.125 C17.11171875 11.62902344 17.9109375 12.13304687 18.734375 12.65234375 C20.49107871 13.69727958 22.27229457 14.70106027 24.0625 15.6875 C24.701875 16.120625 25.34125 16.55375 26 17 C26 17.99 26 18.98 26 20 C27.32 20.66 28.64 21.32 30 22 C26.02291586 22 24.81893735 20.60705444 21.6875 18.1875 C21.17276123 17.79167725 20.65802246 17.39585449 20.12768555 16.98803711 C19.01179373 16.12733954 17.89870431 15.26299941 16.78808594 14.39550781 C14.90959514 12.92944372 13.02163491 11.47615999 11.1328125 10.0234375 C9.85881849 9.03717679 8.5853703 8.05021056 7.3125 7.0625 C6.70043701 6.59030029 6.08837402 6.11810059 5.45776367 5.6315918 C1.1158248 2.2316496 1.1158248 2.2316496 0 0 Z " fill="#DF5316" transform="translate(58,153)"/>
<path d="M0 0 C3 1 3 1 5 2 C5.598125 1.835 6.19625 1.67 6.8125 1.5 C9.48166589 0.88990494 11.36974946 1.34243737 14 2 C11.15680874 3.89546084 9.78230212 4.41232275 6.54296875 5.03515625 C5.24456055 5.28942383 5.24456055 5.28942383 3.91992188 5.54882812 C3.01822266 5.71833984 2.11652344 5.88785156 1.1875 6.0625 C0.29740234 6.23587891 -0.59269531 6.40925781 -1.50976562 6.58789062 C-8.77814891 7.99415307 -15.58607302 9.12782633 -23 9 C-22.67 8.34 -22.34 7.68 -22 7 C-19.04634485 6.54673095 -16.15881132 6.20217916 -13.1875 5.9375 C-11.55575457 5.78240087 -9.92423273 5.62492724 -8.29296875 5.46484375 C-7.20278442 5.36610962 -7.20278442 5.36610962 -6.09057617 5.26538086 C-3.99909328 4.9998849 -2.03267668 4.55280323 0 4 C0 2.68 0 1.36 0 0 Z " fill="#3F9853" transform="translate(307,473)"/>
<path d="M0 0 C2.6875 0.3125 2.6875 0.3125 5 1 C-1.23918075 7.64735145 -9.68651079 12.37229562 -18 16 C-18.66 15.67 -19.32 15.34 -20 15 C-16.25012025 11.14877215 -12.78720078 8.39360039 -8 6 C-4.43239624 4.0204914 -4.43239624 4.0204914 -1.5 1.25 C-1.005 0.8375 -0.51 0.425 0 0 Z " fill="#3B9558" transform="translate(383,443)"/>
<path d="M0 0 C-2.85584773 1.90389849 -4.9311762 2.69462177 -8.1875 3.625 C-9.08855469 3.88539062 -9.98960937 4.14578125 -10.91796875 4.4140625 C-11.60503906 4.60742188 -12.29210937 4.80078125 -13 5 C-13 4.34 -13 3.68 -13 3 C-15.64 3.33 -18.28 3.66 -21 4 C-21.33 4.99 -21.66 5.98 -22 7 C-23.3303125 6.7525 -23.3303125 6.7525 -24.6875 6.5 C-27.53596892 6.07004243 -30.13004802 5.91558965 -33 6 C-33 5.34 -33 4.68 -33 4 C-29.3775765 3.31881409 -25.75173859 2.65779082 -22.125 2 C-20.60519531 1.71382812 -20.60519531 1.71382812 -19.0546875 1.421875 C-12.6276693 0.26830763 -6.52739943 -0.26058928 0 0 Z " fill="#C44A3E" transform="translate(236,17)"/>
<path d="M0 0 C2.49361571 1.20381448 4.68143083 2.45428722 7 4 C7 4.66 7 5.32 7 6 C8.32 6.66 9.64 7.32 11 8 C11 8.66 11 9.32 11 10 C13.65228812 11.07525194 16.28368454 12.09456151 19 13 C19 13.99 19 14.98 19 16 C19.556875 16.268125 20.11375 16.53625 20.6875 16.8125 C23.22621704 18.11616551 25.65291559 19.37008027 28 21 C28 21.99 28 22.98 28 24 C24.30666901 22.39344468 21.51305016 20.07760395 18.4375 17.5 C15.67088289 15.18760361 13.00123452 13.00082301 10 11 C10 10.34 10 9.68 10 9 C9.40703125 8.74476563 8.8140625 8.48953125 8.203125 8.2265625 C5.78775462 6.88183502 4.48788294 5.50785633 2.75 3.375 C2.22921875 2.74335938 1.7084375 2.11171875 1.171875 1.4609375 C0.78515625 0.97882813 0.3984375 0.49671875 0 0 Z " fill="#429058" transform="translate(90,415)"/>
<path d="M0 0 C4.94383313 -0.0498757 9.88751599 -0.08594211 14.83154297 -0.10986328 C16.50930334 -0.11984803 18.18704664 -0.13344057 19.86474609 -0.15087891 C28.83615457 -0.24171508 37.24818279 -0.26370832 46 2 C46.495 3.485 46.495 3.485 47 5 C46.2265625 4.86722656 45.453125 4.73445313 44.65625 4.59765625 C43.6146875 4.42105469 42.573125 4.24445313 41.5 4.0625 C40.4790625 3.88847656 39.458125 3.71445313 38.40625 3.53515625 C29.91321822 2.20081525 21.59229561 1.7142318 13 1.4375 C11.12248047 1.37272461 11.12248047 1.37272461 9.20703125 1.30664062 C6.13811477 1.20121983 3.06912611 1.09909658 0 1 C0 0.67 0 0.34 0 0 Z " fill="#C2453C" transform="translate(242,109)"/>
<path d="M0 0 C-0.66 1.65 -1.32 3.3 -2 5 C-2.66 4.34 -3.32 3.68 -4 3 C-6.95409701 4.37154504 -9.44008376 5.98863724 -12 8 C-12 7.34 -12 6.68 -12 6 C-16.62 6 -21.24 6 -26 6 C-26 5.67 -26 5.34 -26 5 C-25.16021606 4.82609741 -25.16021606 4.82609741 -24.3034668 4.64868164 C-21.76442215 4.12180947 -19.22595912 3.59218569 -16.6875 3.0625 C-15.80642578 2.88009766 -14.92535156 2.69769531 -14.01757812 2.50976562 C-13.17001953 2.33251953 -12.32246094 2.15527344 -11.44921875 1.97265625 C-10.27879028 1.72914429 -10.27879028 1.72914429 -9.0847168 1.48071289 C-2.66328085 0 -2.66328085 0 0 0 Z " fill="#3F9757" transform="translate(304,383)"/>
<path d="M0 0 C0.66 0.99 1.32 1.98 2 3 C-0.625 6.875 -0.625 6.875 -4 8 C-4.268125 8.70125 -4.53625 9.4025 -4.8125 10.125 C-6.17650738 13.42733367 -7.97650576 15.44755816 -10.3359375 18.0859375 C-13.08174906 21.24426535 -15.52834255 24.62557404 -18 28 C-18 23.79800605 -15.79373591 21.28844643 -13.5 17.9375 C-13.05092285 17.27226318 -12.6018457 16.60702637 -12.13916016 15.92163086 C-8.35979053 10.38617025 -4.3194244 5.1278083 0 0 Z " fill="#C0413D" transform="translate(74,102)"/>
<path d="M0 0 C1.8258428 1.8258428 2.82300078 3.2754995 4.0625 5.5 C4.40410156 6.1084375 4.74570312 6.716875 5.09765625 7.34375 C7.11018007 11.03773312 6.81465084 12.83622905 6 17 C6.66 17 7.32 17 8 17 C8 18.65 8 20.3 8 22 C8.66 22 9.32 22 10 22 C10.66 24.64 11.32 27.28 12 30 C11.34 30 10.68 30 10 30 C0 5.6 0 5.6 0 0 Z " fill="#E6B12F" transform="translate(31,314)"/>
<path d="M0 0 C4.96768758 1.55240237 9.17867057 4.51054781 13 8 C13 8.66 13 9.32 13 10 C13.99 10 14.98 10 16 10 C17.71230248 11.61974559 19.37163262 13.2958946 21 15 C22.9645991 16.71439073 24.97727146 18.35359305 27 20 C23.51705454 20 22.90670608 19.44309867 20.234375 17.3671875 C19.50863281 16.80773437 18.78289062 16.24828125 18.03515625 15.671875 C16.90400391 14.78242188 16.90400391 14.78242188 15.75 13.875 C15.01136719 13.30523437 14.27273437 12.73546875 13.51171875 12.1484375 C8.89047783 8.56228934 4.36675232 4.89310987 0 1 C0 0.67 0 0.34 0 0 Z " fill="#DD5117" transform="translate(88,176)"/>
<path d="M0 0 C0.66 0 1.32 0 2 0 C2.12588878 6.54621635 2.12588878 6.54621635 1.51586914 8.74511719 C0.75326751 12.0784767 0.76227347 15.42405949 0.68359375 18.828125 C0.66281265 19.57713074 0.64203156 20.32613647 0.62062073 21.09783936 C0.55542912 23.48180288 0.49638217 25.86587312 0.4375 28.25 C0.39428584 29.86980254 0.35067063 31.48959443 0.30664062 33.109375 C0.19977904 37.07280832 0.09842667 41.0363486 0 45 C-0.33 45 -0.66 45 -1 45 C-1.02479204 39.55566741 -1.04290359 34.11136797 -1.05493164 28.66699219 C-1.05994811 26.81640042 -1.06676282 24.9658126 -1.07543945 23.11523438 C-1.0876229 20.44920883 -1.09325528 17.78323588 -1.09765625 15.1171875 C-1.10281754 14.29507782 -1.10797882 13.47296814 -1.11329651 12.62594604 C-1.11371514 8.30076604 -0.86576406 4.25991866 0 0 Z " fill="#DEB544" transform="translate(23,223)"/>
<path d="M0 0 C1.13583456 3.71727674 0.66670026 5.47051709 -1 9 C-0.34 9.33 0.32 9.66 1 10 C0.34 10 -0.32 10 -1 10 C-1.66 12.31 -2.32 14.62 -3 17 C-4.32 17.33 -5.64 17.66 -7 18 C-7 18.66 -7 19.32 -7 20 C-7.66 20 -8.32 20 -9 20 C-7.55676531 15.26210835 -5.62773267 11.01141849 -3.375 6.625 C-2.88773437 5.66400391 -2.88773437 5.66400391 -2.390625 4.68359375 C-1.59742593 3.12052499 -0.79922969 1.55999378 0 0 Z " fill="#4575D2" transform="translate(374,316)"/>
<path d="M0 0 C0.66 0.66 1.32 1.32 2 2 C1.21625 2.4125 0.4325 2.825 -0.375 3.25 C-3.12565442 5.08376961 -3.70889977 6.07994153 -5 9 C-5.63808594 8.98839844 -6.27617187 8.97679687 -6.93359375 8.96484375 C-7.75988281 8.95582031 -8.58617187 8.94679688 -9.4375 8.9375 C-10.26121094 8.92589844 -11.08492188 8.91429687 -11.93359375 8.90234375 C-13.99163938 8.76732652 -13.99163938 8.76732652 -15 10 C-16.66617115 10.04063832 -18.33388095 10.042721 -20 10 C-17.58398697 7.58398697 -15.41936676 6.8278815 -12.25 5.5625 C-8.06252406 3.8613379 -3.99574768 2.10886683 0 0 Z " fill="#3D9951" transform="translate(324,373)"/>
<path d="M0 0 C7.9300621 2.91630907 15.40685383 7.63538539 21 14 C18.61435923 13.42415568 16.33317216 12.77772405 14 12 C13.67 11.34 13.34 10.68 13 10 C12.01 9.67 11.02 9.34 10 9 C10 8.34 10 7.68 10 7 C9.21625 7.020625 8.4325 7.04125 7.625 7.0625 C5 7 5 7 3 6 C3 5.01 3 4.02 3 3 C2.01 2.67 1.02 2.34 0 2 C0 1.34 0 0.68 0 0 Z " fill="#D03C38" transform="translate(371,48)"/>
<path d="M0 0 C0.99 0.33 1.98 0.66 3 1 C3 1.66 3 2.32 3 3 C3.556875 3.268125 4.11375 3.53625 4.6875 3.8125 C8.63929472 5.84179999 11.8662606 7.8662606 15 11 C16.2375 11.7115625 16.2375 11.7115625 17.5 12.4375 C20.06075077 14.03796923 21.36047314 15.49756426 23 18 C20.0625 17.1875 20.0625 17.1875 17 16 C16.67 15.01 16.34 14.02 16 13 C15.175 12.67 14.35 12.34 13.5 12 C12.675 11.67 11.85 11.34 11 11 C10.67 10.01 10.34 9.02 10 8 C9.4225 7.855625 8.845 7.71125 8.25 7.5625 C5.12192639 6.7804816 3.35154682 5.16088086 1 3 C0.67 2.01 0.34 1.02 0 0 Z " fill="#329777" transform="translate(378,404)"/>
<path d="M0 0 C0.66 0.33 1.32 0.66 2 1 C-6.03905789 7.79218361 -14.38114951 13.97309579 -23 20 C-23.33 19.34 -23.66 18.68 -24 18 C-20.3085898 15.18928157 -16.63496786 12.41517129 -12.75 9.875 C-10.00276625 8.12669402 -10.00276625 8.12669402 -8 6 C-5.57176345 3.57176345 -2.8900985 1.83915359 0 0 Z " fill="#CFBD20" transform="translate(121,295)"/>
<path d="M0 0 C1.32 0.33 2.64 0.66 4 1 C2.23000902 2.93827536 0.45904239 4.87564344 -1.3125 6.8125 C-1.81201172 7.35970703 -2.31152344 7.90691406 -2.82617188 8.47070312 C-5.16943128 11.03121837 -7.51144854 13.57939534 -10 16 C-9.67 14.35 -9.34 12.7 -9 11 C-8.34 11 -7.68 11 -7 11 C-7 10.01 -7 9.02 -7 8 C-6.34 8 -5.68 8 -5 8 C-5.33 6.68 -5.66 5.36 -6 4 C-3 2 -3 2 0 2 C0 1.34 0 0.68 0 0 Z " fill="#D03E34" transform="translate(156,149)"/>
<path d="M0 0 C0.66 0.33 1.32 0.66 2 1 C1.21625 1.2475 0.4325 1.495 -0.375 1.75 C-3.50530909 3.24062337 -3.54003879 3.99419751 -5 7 C-6.88885799 8.92729405 -8.80427482 10.38681416 -11 12 C-11.99 12 -12.98 12 -14 12 C-14.33 12.99 -14.66 13.98 -15 15 C-15.66 13.35 -16.32 11.7 -17 10 C-15.02 10 -13.04 10 -11 10 C-11 9.01 -11 8.02 -11 7 C-10.34 7 -9.68 7 -9 7 C-9 6.34 -9 5.68 -9 5 C-7.54735962 4.1361871 -6.0876837 3.28419546 -4.625 2.4375 C-3.81289063 1.96183594 -3.00078125 1.48617188 -2.1640625 0.99609375 C-1.09285156 0.50302734 -1.09285156 0.50302734 0 0 Z " fill="#9FAD2C" transform="translate(62,342)"/>
<path d="M0 0 C1.31223156 3.60448416 0.67781335 5.43739253 -0.875 8.875 C-2.47349959 12.60115767 -3.57198841 15.93388992 -4 20 C-4.66 20 -5.32 20 -6 20 C-6 22.64 -6 25.28 -6 28 C-6.99 28.33 -7.98 28.66 -9 29 C-8.39582769 22.86597278 -6.59290549 17.46610452 -4.5 11.6875 C-4.01853516 10.32915039 -4.01853516 10.32915039 -3.52734375 8.94335938 C-1.18244724 2.36489448 -1.18244724 2.36489448 0 0 Z " fill="#E3B038" transform="translate(39,161)"/>
<path d="M0 0 C0.33 0.66 0.66 1.32 1 2 C0.0625 4.125 0.0625 4.125 -1 6 C-0.34 6.33 0.32 6.66 1 7 C-3.11905304 13.71318006 -3.11905304 13.71318006 -6.6875 14.875 C-7.450625 14.91625 -8.21375 14.9575 -9 15 C-9.99 15.495 -9.99 15.495 -11 16 C-9.32076975 12.19866558 -6.88537166 9.02917298 -4.375 5.75 C-3.95476562 5.19570313 -3.53453125 4.64140625 -3.1015625 4.0703125 C-2.07061281 2.71133337 -1.03570089 1.35536165 0 0 Z " fill="#4077D3" transform="translate(364,336)"/>
<path d="M0 0 C0.51949219 0.39832031 1.03898437 0.79664063 1.57421875 1.20703125 C4.65660757 3.54873514 7.65194382 5.79696723 11 7.75 C11.66 8.1625 12.32 8.575 13 9 C13 9.66 13 10.32 13 11 C15.475 11.99 15.475 11.99 18 13 C18 13.66 18 14.32 18 15 C19.32 15.66 20.64 16.32 22 17 C21.67 17.66 21.34 18.32 21 19 C19.82780457 18.21654285 18.66236332 17.42297164 17.5 16.625 C16.8503125 16.18414062 16.200625 15.74328125 15.53125 15.2890625 C15.0259375 14.86367187 14.520625 14.43828125 14 14 C14 13.34 14 12.68 14 12 C13.195625 11.62875 13.195625 11.62875 12.375 11.25 C9.42982839 9.69990968 6.74179131 7.88498152 4 6 C3.21625 5.484375 2.4325 4.96875 1.625 4.4375 C0.820625 3.7259375 0.820625 3.7259375 0 3 C0 2.01 0 1.02 0 0 Z " fill="#FB9E1D" transform="translate(102,188)"/>
<path d="M0 0 C2 1 4 2 6 3 C6 2.34 6 1.68 6 1 C9.34373475 1.55728913 12.03312999 2.35173889 15 4 C13.25 6.0625 13.25 6.0625 11 8 C7.63001126 7.66161998 5.73519285 6.20906031 3.25 4 C2.63640625 3.46375 2.0228125 2.9275 1.390625 2.375 C0.93171875 1.92125 0.4728125 1.4675 0 1 C0 0.67 0 0.34 0 0 Z " fill="#CF3F32" transform="translate(334,136)"/>
<path d="M0 0 C5.23272633 1.63958758 10.15196636 3.38952035 15 6 C12.75 8.0625 12.75 8.0625 10 10 C7.6875 9.75 7.6875 9.75 6 9 C5.9071875 7.824375 5.9071875 7.824375 5.8125 6.625 C5.544375 5.75875 5.27625 4.8925 5 4 C2.52363988 2.62533375 2.52363988 2.62533375 0 2 C0 1.34 0 0.68 0 0 Z " fill="#D93F32" transform="translate(340,32)"/>
<path d="M0 0 C0.25523437 0.58265625 0.51046875 1.1653125 0.7734375 1.765625 C2.11741087 4.21388223 3.61810296 5.81743248 5.625 7.75 C6.57246094 8.67039062 6.57246094 8.67039062 7.5390625 9.609375 C8.02117187 10.06828125 8.50328125 10.5271875 9 11 C6 11 6 11 4.5625 9.625 C4.046875 9.08875 3.53125 8.5525 3 8 C0.14829992 5.88762957 -1.84929688 5.95516011 -5.25 6.375 C-7.10625 6.684375 -7.10625 6.684375 -9 7 C-6.3765992 4.08511023 -3.28183606 2.11496102 0 0 Z " fill="#368F89" transform="translate(335,366)"/>
<path d="M0 0 C0.66 0.33 1.32 0.66 2 1 C1 4 1 4 -1.7421875 5.390625 C-3.35480469 6.18726563 -3.35480469 6.18726563 -5 7 C-7.65448469 9.3157819 -10.13079831 11.75574412 -12.6328125 14.234375 C-15 16 -15 16 -17.3046875 15.765625 C-17.86414063 15.51296875 -18.42359375 15.2603125 -19 15 C-17.33857487 13.66014102 -15.66998649 12.32917292 -14 11 C-13.25234375 10.39800781 -12.5046875 9.79601562 -11.734375 9.17578125 C-10.93515625 8.54027344 -10.1359375 7.90476562 -9.3125 7.25 C-8.16201172 6.32960938 -8.16201172 6.32960938 -6.98828125 5.390625 C-5 4 -5 4 -3 4 C-3 3.34 -3 2.68 -3 2 C-2.01 1.34 -1.02 0.68 0 0 Z " fill="#679E2B" transform="translate(83,326)"/>
<path d="M0 0 C0.66 0.33 1.32 0.66 2 1 C-1.63 8.59 -5.26 16.18 -9 24 C-10.35304209 19.94087374 -9.15216503 18.22850409 -7.5625 14.3125 C-7.08941406 13.13300781 -6.61632812 11.95351562 -6.12890625 10.73828125 C-5.75636719 9.83464844 -5.38382813 8.93101562 -5 8 C-4.34 8 -3.68 8 -3 8 C-3 5.69 -3 3.38 -3 1 C-2.01 0.67 -1.02 0.34 0 0 Z " fill="#BF463E" transform="translate(136,177)"/>
<path d="M0 0 C4.38313488 2.8623199 8.59603287 5.87779187 12.75 9.0625 C13.32621094 9.49626953 13.90242188 9.93003906 14.49609375 10.37695312 C17.2022475 12.44914778 19.09121454 14.13682181 21 17 C14.39407684 14.66849771 9.89242147 10.89242147 5 6 C4.071875 5.46375 3.14375 4.9275 2.1875 4.375 C1.465625 3.92125 0.74375 3.4675 0 3 C0 2.01 0 1.02 0 0 Z " fill="#FC9E1B" transform="translate(76,168)"/>
<path d="M0 0 C0.66 0 1.32 0 2 0 C2.32613281 0.88042969 2.65226562 1.76085937 2.98828125 2.66796875 C3.42527344 3.82941406 3.86226563 4.99085938 4.3125 6.1875 C4.74175781 7.33605469 5.17101562 8.48460937 5.61328125 9.66796875 C6.89466419 12.99486884 6.89466419 12.99486884 8.73046875 15.80078125 C9.14941406 16.52652344 9.56835938 17.25226563 10 18 C9.67 18.66 9.34 19.32 9 20 C4.45210582 15.45210582 3.07819062 11.57103411 1.7734375 5.29296875 C1.51820312 4.53628906 1.26296875 3.77960938 1 3 C0.01 2.67 -0.98 2.34 -2 2 C-1.34 2 -0.68 2 0 2 C0 1.34 0 0.68 0 0 Z " fill="#449355" transform="translate(124,296)"/>
<path d="M0 0 C4.14357976 1.05998552 6.50131261 2.26572715 9.3671875 5.42578125 C13.16358696 9.08594628 17.69978193 11.96499495 22 15 C17.54790134 15 14.46134456 13.39360011 11.23046875 10.3125 C10.04207823 9.06973867 8.85713196 7.82367394 7.67578125 6.57421875 C5.64968315 4.67091447 3.59792541 3.91691485 1 3 C0.67 2.01 0.34 1.02 0 0 Z " fill="#32938A" transform="translate(352,384)"/>
<path d="M0 0 C1.32 0.66 2.64 1.32 4 2 C4.99 1.34 5.98 0.68 7 0 C5.44298069 4.67105792 2.91552627 8.08705685 0 12 C-0.66 10.68 -1.32 9.36 -2 8 C-1.34 7.34 -0.68 6.68 0 6 C-0.28604898 4.32457024 -0.61781233 2.65614657 -1 1 C-0.67 0.67 -0.34 0.34 0 0 Z " fill="#3E76D5" transform="translate(434,388)"/>
<path d="M0 0 C4.22903599 1.30898733 8.16449568 2.77005563 12 5 C12.33 5.99 12.66 6.98 13 8 C14.29355827 9.37195574 15.62298702 10.71182656 17 12 C10.05304747 10.70034741 4.69519954 4.98864951 0 0 Z " fill="#368ABC" transform="translate(341,374)"/>
<path d="M0 0 C5.47932789 1.54545146 10.11429181 4.15543212 15 7 C15 7.33 15 7.66 15 8 C13.56344146 8.08131463 12.1255517 8.13933559 10.6875 8.1875 C9.48673828 8.23970703 9.48673828 8.23970703 8.26171875 8.29296875 C6 8 6 8 4.20703125 6.61328125 C3 5 3 5 3 3 C2.01 2.67 1.02 2.34 0 2 C0 1.34 0 0.68 0 0 Z " fill="#CB3E35" transform="translate(355,39)"/>
<path d="M0 0 C0.66 0.33 1.32 0.66 2 1 C0.75903323 3.42169243 -0.49223371 5.83705119 -1.75 8.25 C-2.09804688 8.93191406 -2.44609375 9.61382812 -2.8046875 10.31640625 C-4.80203249 14.12615687 -6.71206968 17.12676359 -10 20 C-8.78566051 14.83905717 -7.33738726 12.17173407 -4 8 C-3.30269194 5.6756398 -2.63087848 3.34326294 -2 1 C-1.34 0.67 -0.68 0.34 0 0 Z " fill="#4570C4" transform="translate(451,368)"/>
<path d="M0 0 C0.98742187 0.56589844 1.97484375 1.13179688 2.9921875 1.71484375 C4.28644206 2.45575759 5.58071379 3.19664145 6.875 3.9375 C7.52597656 4.31068359 8.17695313 4.68386719 8.84765625 5.06835938 C12.38746834 7.10133078 12.38746834 7.10133078 16 9 C15.67 9.66 15.34 10.32 15 11 C13.02 10.34 11.04 9.68 9 9 C9 8.34 9 7.68 9 7 C7.72125 6.855625 6.4425 6.71125 5.125 6.5625 C2.74307106 6.29357254 1.15547309 6.07773654 -1 5 C-0.67 3.35 -0.34 1.7 0 0 Z " fill="#3A8E52" transform="translate(180,367)"/>
<path d="M0 0 C0.66 0.33 1.32 0.66 2 1 C-1.75 4 -1.75 4 -4 4 C-4 4.66 -4 5.32 -4 6 C-5.8984375 7.7265625 -5.8984375 7.7265625 -8.375 9.625 C-9.18710938 10.25664062 -9.99921875 10.88828125 -10.8359375 11.5390625 C-13 13 -13 13 -15 13 C-15 12.34 -15 11.68 -15 11 C-14.01 10.34 -13.02 9.68 -12 9 C-11.731875 8.360625 -11.46375 7.72125 -11.1875 7.0625 C-9.45440073 4.05238021 -7.1237121 3.37443332 -4 2 C-3.2575 1.5875 -2.515 1.175 -1.75 0.75 C-0.88375 0.37875 -0.88375 0.37875 0 0 Z " fill="#D9B919" transform="translate(84,324)"/>
<path d="M0 0 C1.32 0.66 2.64 1.32 4 2 C4 2.66 4 3.32 4 4 C2.35 4.66 0.7 5.32 -1 6 C-0.938125 6.7425 -0.87625 7.485 -0.8125 8.25 C-1.03239994 11.47519908 -1.78252188 12.69723426 -4 15 C-4.66 15 -5.32 15 -6 15 C-4.36041242 9.76727367 -2.61047965 4.84803364 0 0 Z " fill="#E5B02E" transform="translate(46,145)"/>
<path d="M0 0 C1.32 0.33 2.64 0.66 4 1 C0.04 4.3 -3.92 7.6 -8 11 C-9 8 -9 8 -8 5 C-7.01 4.67 -6.02 4.34 -5 4 C-5.33 3.34 -5.66 2.68 -6 2 C-3.03 2.495 -3.03 2.495 0 3 C0 2.01 0 1.02 0 0 Z " fill="#C4453E" transform="translate(172,135)"/>
<path d="M0 0 C-2.49136491 5.64220877 -6.76723388 9.10689355 -12.4375 11.375 C-13.283125 11.58125 -14.12875 11.7875 -15 12 C-11.82654652 8.73587642 -8.57036304 5.81870766 -5 3 C-4.443125 2.4225 -3.88625 1.845 -3.3125 1.25 C-2 0 -2 0 0 0 Z " fill="#61A02F" transform="translate(100,314)"/>
<path d="M0 0 C0.33 0 0.66 0 1 0 C2.37292913 8.3969326 3.31274919 16.48627215 3 25 C0.35279622 22.35279622 0.64939777 20.81292293 0.4375 17.125 C0.21189791 12.94669093 0.21189791 12.94669093 -0.5546875 8.8515625 C-1.28061279 5.83324155 -0.52223324 3.0173476 0 0 Z " fill="#416FC3" transform="translate(474,211)"/>
<path d="M0 0 C0 0.66 0 1.32 0 2 C-2.06175364 2.959938 -4.12443469 3.91788424 -6.1875 4.875 C-7.33605469 5.40867187 -8.48460937 5.94234375 -9.66796875 6.4921875 C-10.76753906 6.98976563 -11.86710937 7.48734375 -13 8 C-13.90363281 8.41507812 -14.80726563 8.83015625 -15.73828125 9.2578125 C-18 10 -18 10 -21 9 C-20.38125 8.71125 -19.7625 8.4225 -19.125 8.125 C-16.86674235 7.06279958 -16.86674235 7.06279958 -15 5 C-13.56180897 4.44471389 -12.09933731 3.95062801 -10.625 3.5 C-8.23872573 2.76576176 -6.06666097 2.03369147 -3.8359375 0.90625 C-2 0 -2 0 0 0 Z " fill="#419456" transform="translate(361,459)"/>
<path d="M0 0 C0.66 0 1.32 0 2 0 C6 4.47058824 6 4.47058824 6 7 C7.32 7 8.64 7 10 7 C10.99 8.98 11.98 10.96 13 13 C12.01 13.33 11.02 13.66 10 14 C8.51551984 12.23361856 7.03758035 10.46173862 5.5625 8.6875 C4.73878906 7.70136719 3.91507812 6.71523438 3.06640625 5.69921875 C1 3 1 3 0 0 Z " fill="#409557" transform="translate(68,389)"/>
<path d="M0 0 C0.66 0.33 1.32 0.66 2 1 C0.69802189 4.90593434 -0.88935496 5.41410218 -4.375 7.5 C-7.60345102 9.44218162 -10.47510495 11.18311028 -13 14 C-13.66 13.67 -14.32 13.34 -15 13 C-13.43910974 11.58155991 -11.8762111 10.16532975 -10.3125 8.75 C-9.44238281 7.96109375 -8.57226562 7.1721875 -7.67578125 6.359375 C-5.17579137 4.15500436 -2.62054272 2.05866059 0 0 Z " fill="#BF4640" transform="translate(116,61)"/>
<path d="M0 0 C3.90354222 1.30118074 4.45338056 2.90383582 6.5625 6.375 C7.46162109 7.84066406 7.46162109 7.84066406 8.37890625 9.3359375 C8.91386719 10.21507812 9.44882813 11.09421875 10 12 C10.99 13.485 10.99 13.485 12 15 C10.125 14.8125 10.125 14.8125 8 14 C7.29788106 12.34795544 6.63028587 10.68076231 6 9 C5.01 8.67 4.02 8.34 3 8 C3 6.68 3 5.36 3 4 C2.34 4 1.68 4 1 4 C0.67 2.68 0.34 1.36 0 0 Z " fill="#429057" transform="translate(136,322)"/>
<path d="M0 0 C-2.96828999 1.97885999 -5.77447054 3.25864997 -9.0625 4.625 C-10.12597656 5.07101563 -11.18945312 5.51703125 -12.28515625 5.9765625 C-15 7 -15 7 -17 7 C-16.67 6.01 -16.34 5.02 -16 4 C-14.68 4 -13.36 4 -12 4 C-12 3.34 -12 2.68 -12 2 C-8.09971775 -0.60018816 -4.52565431 -0.15085514 0 0 Z " fill="#C74038" transform="translate(213,116)"/>
<path d="M0 0 C2 2 2 2 2 6 C2.99 6.33 3.98 6.66 5 7 C4.34 7 3.68 7 3 7 C3.165 7.66 3.33 8.32 3.5 9 C4.12183299 12.73099794 4.06408926 16.21873378 4 20 C3.67 20 3.34 20 3 20 C-0.44419134 6.3667426 -0.44419134 6.3667426 0 0 Z " fill="#EEB722" transform="translate(27,294)"/>
<path d="M0 0 C0.98484375 0.00902344 1.9696875 0.01804687 2.984375 0.02734375 C4.10585937 0.04474609 4.10585937 0.04474609 5.25 0.0625 C4.26 0.3925 3.27 0.7225 2.25 1.0625 C1.92 2.0525 1.59 3.0425 1.25 4.0625 C-0.0803125 3.815 -0.0803125 3.815 -1.4375 3.5625 C-4.28596892 3.13254243 -6.88004802 2.97808965 -9.75 3.0625 C-9.75 2.4025 -9.75 1.7425 -9.75 1.0625 C-6.43929162 0.06140485 -3.44915231 -0.04106134 0 0 Z " fill="#D14036" transform="translate(212.75,19.9375)"/>
<path d="M0 0 C0.66 0 1.32 0 2 0 C0.47940093 3.88014936 -1.86078531 5.73906562 -5.125 8.25 C-6.03507812 8.95640625 -6.94515625 9.6628125 -7.8828125 10.390625 C-8.58148438 10.92171875 -9.28015625 11.4528125 -10 12 C-10.33 11.34 -10.66 10.68 -11 10 C-10.67 9.34 -10.34 8.68 -10 8 C-9.01 8 -8.02 8 -7 8 C-7 7.34 -7 6.68 -7 6 C-6.34 6 -5.68 6 -5 6 C-4.67 5.01 -4.34 4.02 -4 3 C-3.34 3.33 -2.68 3.66 -2 4 C-1.34 2.68 -0.68 1.36 0 0 Z " fill="#3D8F56" transform="translate(401,431)"/>
<path d="M0 0 C2.475 0.495 2.475 0.495 5 1 C5 1.99 5 2.98 5 4 C5.66 4 6.32 4 7 4 C7.66 5.65 8.32 7.3 9 9 C9.66 9 10.32 9 11 9 C10.67 9.99 10.34 10.98 10 12 C6.08552441 8.27856704 2.50346649 4.85967024 0 0 Z " fill="#409158" transform="translate(79,403)"/>
<path d="M0 0 C0.99 0.33 1.98 0.66 3 1 C3 1.66 3 2.32 3 3 C4.65 3.33 6.3 3.66 8 4 C8 6.64 8 9.28 8 12 C4.02502456 8.59287819 2.13206212 4.67239145 0 0 Z " fill="#3D9657" transform="translate(52,365)"/>
<path d="M0 0 C4.52615993 3.67832017 8.39424999 7.41086363 12 12 C9.6875 11.8125 9.6875 11.8125 7 11 C5.375 8.5 5.375 8.5 4 6 C3.01 5.67 2.02 5.34 1 5 C0.67 3.35 0.34 1.7 0 0 Z " fill="#3F8F57" transform="translate(153,344)"/>
<path d="M0 0 C2.97 0.495 2.97 0.495 6 1 C5.34 1.66 4.68 2.32 4 3 C3.67 3.99 3.34 4.98 3 6 C2.01 7.485 2.01 7.485 1 9 C0.34 9 -0.32 9 -1 9 C-0.67 6.03 -0.34 3.06 0 0 Z " fill="#4178DA" transform="translate(378,300)"/>
<path d="M0 0 C0.66 0.33 1.32 0.66 2 1 C-1.3 4.3 -4.6 7.6 -8 11 C-9.65 10.01 -11.3 9.02 -13 8 C-12.443125 7.896875 -11.88625 7.79375 -11.3125 7.6875 C-6.57631717 6.27944564 -3.32553726 3.57187335 0 0 Z " fill="#437CC0" transform="translate(418,416)"/>
<path d="M0 0 C2.80722691 4.21084037 1.94537893 6.11554218 1 11 C0.01 11.495 0.01 11.495 -1 12 C-1 10.68 -1 9.36 -1 8 C-1.66 7.67 -2.32 7.34 -3 7 C-2.625 4.0625 -2.625 4.0625 -2 1 C-1.34 0.67 -0.68 0.34 0 0 Z " fill="#ECB615" transform="translate(26,215)"/>
<path d="M0 0 C7.30696249 0.45965708 13.99757448 1.88329723 21 4 C21 4.33 21 4.66 21 5 C13.13950828 5.42875409 6.96191434 3.60639707 0 0 Z " fill="#BF4A41" transform="translate(297,20)"/>
<path d="M0 0 C0 0.99 0 1.98 0 3 C-0.99 3 -1.98 3 -3 3 C-3 3.66 -3 4.32 -3 5 C-0.525 5.99 -0.525 5.99 2 7 C1.34 8.98 0.68 10.96 0 13 C-2.26969744 10.73030256 -2.99131829 9.02604513 -4 6 C-4 4.68 -4 3.36 -4 2 C-2.68 1.34 -1.36 0.68 0 0 Z " fill="#449448" transform="translate(52,352)"/>
<path d="M0 0 C-1.95519384 1.17192047 -3.9142539 2.3373929 -5.875 3.5 C-6.96554688 4.1496875 -8.05609375 4.799375 -9.1796875 5.46875 C-12 7 -12 7 -14 7 C-12.73462163 3.2038649 -11.44944589 2.84505245 -8 1 C-6.9790625 0.38125 -6.9790625 0.38125 -5.9375 -0.25 C-3.53869661 -1.17856905 -2.4168921 -0.70346132 0 0 Z " fill="#BD423A" transform="translate(196,124)"/>
<path d="M0 0 C1.45880109 0.14107747 2.91703551 0.28802415 4.375 0.4375 C5.59316406 0.55931641 5.59316406 0.55931641 6.8359375 0.68359375 C9 1 9 1 11 2 C11 2.66 11 3.32 11 4 C11.99 4 12.98 4 14 4 C14 4.66 14 5.32 14 6 C8.93001981 5.34580901 4.58009223 3.1453591 0 1 C0 0.67 0 0.34 0 0 Z " fill="#BD4641" transform="translate(300,117)"/>
<path d="M0 0 C1.33333333 0.66666667 2.66666667 1.33333333 4 2 C5.051875 2.495 5.051875 2.495 6.125 3 C8 4 8 4 10 6 C10.66 6 11.32 6 12 6 C12 6.99 12 7.98 12 9 C7.09198451 7.51272258 3.59508707 4.55364515 0 1 C0 0.67 0 0.34 0 0 Z " fill="#3686CB" transform="translate(360,388)"/>
<path d="M0 0 C0 3.55955169 -0.89341295 4.27899173 -3 7 C-3 7.66 -3 8.32 -3 9 C-5.31 9.66 -7.62 10.32 -10 11 C-6.79239749 7.19364503 -3.59253891 3.45436433 0 0 Z " fill="#C0493D" transform="translate(99,75)"/>
<path d="M0 0 C3.3 0.33 6.6 0.66 10 1 C10 1.33 10 1.66 10 2 C8.3603125 2.2165625 8.3603125 2.2165625 6.6875 2.4375 C3.06877013 2.88288104 3.06877013 2.88288104 0 4 C-0.33 4.66 -0.66 5.32 -1 6 C-1.66 4.68 -2.32 3.36 -3 2 C-2.01 2 -1.02 2 0 2 C0 1.34 0 0.68 0 0 Z " fill="#D33A2E" transform="translate(236,16)"/>
<path d="M0 0 C0.66 0.33 1.32 0.66 2 1 C-3.445 5.455 -3.445 5.455 -9 10 C-9.33 9.34 -9.66 8.68 -10 8 C-6.97727468 4.74475735 -3.74281699 2.38179263 0 0 Z " fill="#C1BA26" transform="translate(121,295)"/>
<path d="M0 0 C0.66 0 1.32 0 2 0 C1.85851011 1.6045556 1.71164314 3.20863767 1.5625 4.8125 C1.48128906 5.70582031 1.40007812 6.59914062 1.31640625 7.51953125 C1 10 1 10 0 13 C-1.32 12.67 -2.64 12.34 -4 12 C-3.01 11.67 -2.02 11.34 -1 11 C-1.309375 9.6696875 -1.309375 9.6696875 -1.625 8.3125 C-2.02550239 4.7747289 -1.56683516 3.13367033 0 0 Z " fill="#DB442D" transform="translate(126,192)"/>
<path d="M0 0 C1.81618856 1.11903546 3.62785526 2.24541284 5.4375 3.375 C6.44683594 4.00148438 7.45617187 4.62796875 8.49609375 5.2734375 C11 7 11 7 12 9 C9.61435923 8.42415568 7.33317216 7.77772405 5 7 C4.67 6.34 4.34 5.68 4 5 C3.01 4.67 2.02 4.34 1 4 C0.3125 1.9375 0.3125 1.9375 0 0 Z " fill="#BF4541" transform="translate(380,53)"/>
<path d="M0 0 C-4.34242429 4.34242429 -8.13551546 4.7444669 -14 5 C-11.75043698 2.75043698 -9.93676737 1.99489035 -7 0.8125 C-6.113125 0.44769531 -5.22625 0.08289063 -4.3125 -0.29296875 C-2 -1 -2 -1 0 0 Z " fill="#439258" transform="translate(318,378)"/>
<path d="M0 0 C0.66 0 1.32 0 2 0 C1.91433603 2.912575 1.42089045 4.56798024 -0.625 6.66796875 C-2.38391375 8.16091772 -4.16313019 9.60436262 -6 11 C-5.25 8.0625 -5.25 8.0625 -4 5 C-1.875 4.125 -1.875 4.125 0 4 C0 2.68 0 1.36 0 0 Z " fill="#C14238" transform="translate(400,83)"/>
<path d="M0 0 C4.83628305 0.99043705 9.47618873 1.95698846 14 4 C10.70303895 5.09898702 9.59505097 4.87124444 6.3125 4.0625 C5.10013672 3.77052734 5.10013672 3.77052734 3.86328125 3.47265625 C2.94095703 3.23869141 2.94095703 3.23869141 2 3 C2 2.34 2 1.68 2 1 C1.34 0.67 0.68 0.34 0 0 Z " fill="#C1463A" transform="translate(319,25)"/>
<path d="M0 0 C-2.85478326 1.90318884 -4.41941308 2.4619099 -7.6875 3.125 C-8.49574219 3.29257812 -9.30398438 3.46015625 -10.13671875 3.6328125 C-10.75160156 3.75398438 -11.36648438 3.87515625 -12 4 C-12 3.34 -12 2.68 -12 2 C-8.09971775 -0.60018816 -4.52565431 -0.15085514 0 0 Z " fill="#409359" transform="translate(338,470)"/>
<path d="M0 0 C1.65 0.33 3.3 0.66 5 1 C1.67692308 4.93846154 1.67692308 4.93846154 -1.75 5.25 C-2.4925 5.1675 -3.235 5.085 -4 5 C-2.68 3.35 -1.36 1.7 0 0 Z " fill="#36984F" transform="translate(383,443)"/>
<path d="M0 0 C2.9719385 1.12451727 5.33440687 2.22293791 8 4 C5.08517222 4.80967438 3.53886783 5.21845993 0.6875 4.0625 C0.130625 3.711875 -0.42625 3.36125 -1 3 C-0.67 2.01 -0.34 1.02 0 0 Z " fill="#439558" transform="translate(197,377)"/>
<path d="M0 0 C3.53372712 1.96318174 6.24479785 4.04070881 9 7 C7.68 7.33 6.36 7.66 5 8 C2 4.25 2 4.25 2 2 C1.34 2 0.68 2 0 2 C0 1.34 0 0.68 0 0 Z " fill="#429056" transform="translate(170,360)"/>
<path d="M0 0 C0.99 0.66 1.98 1.32 3 2 C2.02433888 3.16959987 1.044375 4.33561177 0.0625 5.5 C-0.48277344 6.1496875 -1.02804687 6.799375 -1.58984375 7.46875 C-2.05519531 7.9740625 -2.52054687 8.479375 -3 9 C-3.33 9 -3.66 9 -4 9 C-4 7.02 -4 5.04 -4 3 C-2.68 3 -1.36 3 0 3 C0 2.01 0 1.02 0 0 Z " fill="#406DCA" transform="translate(429,401)"/>
<path d="M0 0 C1.7074998 1.28062485 3.37373596 2.61767557 5 4 C5 4.66 5 5.32 5 6 C5.66 6.33 6.32 6.66 7 7 C5.35 7.33 3.7 7.66 2 8 C2.33 7.34 2.66 6.68 3 6 C2.34 5.67 1.68 5.34 1 5 C0.375 2.4375 0.375 2.4375 0 0 Z " fill="#31995E" transform="translate(401,422)"/>
<path d="M0 0 C2.4375 1.1875 2.4375 1.1875 3.4375 3.1875 C2.550625 3.001875 1.66375 2.81625 0.75 2.625 C-2.41428811 2.20707516 -4.51089642 2.37972258 -7.5625 3.1875 C-3.4632323 -1.09809805 -3.4632323 -1.09809805 0 0 Z " fill="#3F9162" transform="translate(333.5625,369.8125)"/>
<path d="M0 0 C1.32 0.33 2.64 0.66 4 1 C1.36 3.64 -1.28 6.28 -4 9 C-4 6 -4 6 -2.5625 4.5 C-2.046875 4.005 -1.53125 3.51 -1 3 C-0.67 2.01 -0.34 1.02 0 0 Z " fill="#C2453D" transform="translate(359,125)"/>
<path d="M0 0 C1.24546405 2.49092811 0.7767578 3.41080733 0 6 C-1.65 6.33 -3.3 6.66 -5 7 C-3.70700306 4.11562221 -2.34058637 2.12780579 0 0 Z " fill="#C7443B" transform="translate(80,95)"/>
<path d="M0 0 C0 0.99 0 1.98 0 3 C-4.455 4.485 -4.455 4.485 -9 6 C-3.15384615 0 -3.15384615 0 0 0 Z " fill="#C44C45" transform="translate(127,55)"/>
<path d="M0 0 C0.66 0 1.32 0 2 0 C2.28571429 7.42857143 2.28571429 7.42857143 0 11 C-1.05404945 7.01803543 -0.84098656 4.01804691 0 0 Z " fill="#E6B62F" transform="translate(23,223)"/>
<path d="M0 0 C1.65 0 3.3 0 5 0 C4.34 3.63 3.68 7.26 3 11 C2.67 11 2.34 11 2 11 C2 8.03 2 5.06 2 2 C1.34 2 0.68 2 0 2 C0 1.34 0 0.68 0 0 Z " fill="#F9B213" transform="translate(118,206)"/>
<path d="M0 0 C0.99 0 1.98 0 3 0 C1.55746343 3.36591866 -0.33264727 5.51047079 -3 8 C-2.67 6.35 -2.34 4.7 -2 3 C-1.34 3 -0.68 3 0 3 C0 2.01 0 1.02 0 0 Z " fill="#BD4641" transform="translate(149,157)"/>
<path d="M0 0 C3.3 0 6.6 0 10 0 C6.09567131 1.95216435 3.27786748 2.50639991 -1 3 C-0.67 2.01 -0.34 1.02 0 0 Z " fill="#BD433A" transform="translate(214,113)"/>
<path d="M0 0 C0 3.99904969 -1.72586967 5.80200422 -4 9 C-4.99 8.34 -5.98 7.68 -7 7 C-4.69 4.69 -2.38 2.38 0 0 Z " fill="#C2473D" transform="translate(88,86)"/>
<path d="M0 0 C0.33 0.66 0.66 1.32 1 2 C-1.06756277 4.7972908 -2.14440371 5.02692273 -5.6875 5.6875 C-6.780625 5.790625 -7.87375 5.89375 -9 6 C-6.45543849 3.03134491 -3.51005335 1.6380249 0 0 Z " fill="#C04743" transform="translate(145,43)"/>
<path d="M0 0 C0.66 0.33 1.32 0.66 2 1 C1.34 2.32 0.68 3.64 0 5 C-1.32 5 -2.64 5 -4 5 C-4 4.01 -4 3.02 -4 2 C-2.125 0.9375 -2.125 0.9375 0 0 Z " fill="#D63B31" transform="translate(150,40)"/>
<path d="M0 0 C1.46067199 0.45082469 2.91848032 0.91093537 4.375 1.375 C5.18710937 1.63023438 5.99921875 1.88546875 6.8359375 2.1484375 C9 3 9 3 11 5 C7.0507432 4.44894091 3.65079826 3.61064629 0 2 C0 1.34 0 0.68 0 0 Z " fill="#B94942" transform="translate(340,32)"/>
<path d="M0 0 C0.99 0 1.98 0 3 0 C3.33 0.99 3.66 1.98 4 3 C5.29355827 4.37195574 6.62298702 5.71182656 8 7 C5.83125748 6.49396008 4.00032373 6.00016187 2 5 C1.27840576 3.35636866 0.60648579 1.68949614 0 0 Z " fill="#3786CA" transform="translate(350,379)"/>
<path d="M0 0 C0.66 0.33 1.32 0.66 2 1 C2 2.65 2 4.3 2 6 C1.01 6 0.02 6 -1 6 C-1.625 4.125 -1.625 4.125 -2 2 C-1.34 1.34 -0.68 0.68 0 0 Z " fill="#E83B29" transform="translate(123,197)"/>
<path d="M0 0 C0.99 0.33 1.98 0.66 3 1 C3 1.66 3 2.32 3 3 C3.61875 3.309375 4.2375 3.61875 4.875 3.9375 C6.25 4.625 7.625 5.3125 9 6 C8.67 6.66 8.34 7.32 8 8 C6.66102417 7.04956626 5.32894573 6.08940853 4 5.125 C3.2575 4.59132812 2.515 4.05765625 1.75 3.5078125 C1.1725 3.01023438 0.595 2.51265625 0 2 C0 1.34 0 0.68 0 0 Z " fill="#DD5612" transform="translate(49,145)"/>
<path d="M0 0 C0.99 0.33 1.98 0.66 3 1 C1.25 3.0625 1.25 3.0625 -1 5 C-3.1875 4.875 -3.1875 4.875 -5 4 C-5.33 3.34 -5.66 2.68 -6 2 C-3.525 2.495 -3.525 2.495 -1 3 C-0.67 2.01 -0.34 1.02 0 0 Z " fill="#C44239" transform="translate(346,139)"/>
<path d="M0 0 C0.66 0.33 1.32 0.66 2 1 C0.86695008 4.39914975 -0.12518475 5.05254451 -3 7 C-3.66 6.67 -4.32 6.34 -5 6 C-3.35 4.02 -1.7 2.04 0 0 Z " fill="#CB4136" transform="translate(116,61)"/>
<path d="M0 0 C0.66 0.33 1.32 0.66 2 1 C1.01 2.485 1.01 2.485 0 4 C-3.625 4.1875 -3.625 4.1875 -7 4 C-4.61426621 2.10786631 -2.92824652 0.97608217 0 0 Z " fill="#C24743" transform="translate(166,33)"/>
<path d="M0 0 C0.66 0 1.32 0 2 0 C2 0.66 2 1.32 2 2 C2.99 2 3.98 2 5 2 C5 2.66 5 3.32 5 4 C5.99 4.33 6.98 4.66 8 5 C2.46153846 4.38461538 2.46153846 4.38461538 0.125 2.4375 C-0.24625 1.963125 -0.6175 1.48875 -1 1 C-0.67 0.67 -0.34 0.34 0 0 Z " fill="#3F935C" transform="translate(139,451)"/>
<path d="M0 0 C3.36591866 1.44253657 5.51047079 3.33264727 8 6 C7.67 6.66 7.34 7.32 7 8 C5.83035398 6.8572081 4.66435444 5.71068285 3.5 4.5625 C2.8503125 3.92441406 2.200625 3.28632813 1.53125 2.62890625 C0 1 0 1 0 0 Z " fill="#4C8F5A" transform="translate(90,415)"/>
<path d="M0 0 C3.91402949 1.26941497 5.79072873 2.51167694 8 6 C7.01 6 6.02 6 5 6 C4.67 5.34 4.34 4.68 4 4 C1.98330173 2.86649466 1.98330173 2.86649466 0 2 C0 1.34 0 0.68 0 0 Z " fill="#319679" transform="translate(344,378)"/>
<path d="M0 0 C1.9375 0.625 1.9375 0.625 4 2 C4.75 5.125 4.75 5.125 5 8 C2.20127563 5.47211993 0.54226981 3.79588866 0 0 Z " fill="#439058" transform="translate(60,377)"/>
<path d="M0 0 C3.96 1.98 3.96 1.98 8 4 C7.67 4.66 7.34 5.32 7 6 C4.0625 5.25 4.0625 5.25 1 4 C0.67 2.68 0.34 1.36 0 0 Z " fill="#43905A" transform="translate(188,372)"/>
<path d="M0 0 C0.66 0.33 1.32 0.66 2 1 C-1.75 4 -1.75 4 -4 4 C-4 4.66 -4 5.32 -4 6 C-4.99 6.33 -5.98 6.66 -7 7 C-7 6.34 -7 5.68 -7 5 C-6.34 5 -5.68 5 -5 5 C-4.731875 4.360625 -4.46375 3.72125 -4.1875 3.0625 C-3 1 -3 1 0 0 Z " fill="#CDBC1F" transform="translate(84,324)"/>
<path d="M0 0 C0.66 0 1.32 0 2 0 C2 1.98 2 3.96 2 6 C1.01 6.33 0.02 6.66 -1 7 C-0.67 4.69 -0.34 2.38 0 0 Z " fill="#EAB32C" transform="translate(29,191)"/>
<path d="M0 0 C1.32 0.66 2.64 1.32 4 2 C4 2.66 4 3.32 4 4 C2.02 4.99 2.02 4.99 0 6 C-1.125 2.25 -1.125 2.25 0 0 Z " fill="#ECA630" transform="translate(46,145)"/>
<path d="M0 0 C-0.33 0.99 -0.66 1.98 -1 3 C-3.64 3 -6.28 3 -9 3 C-5.73209435 0.82139623 -3.91954654 0 0 0 Z " fill="#C34A42" transform="translate(202,22)"/>
</svg>
